<svg version="1" xmlns="http://www.w3.org/2000/svg" width="1440" height="1440" viewBox="0 0 1080.000000 1080.000000"><path d="M268.6 269C89.3 448.6 0 538.7 0 540c0 3 536.5 540 539.5 540 1.6 0 75-72.9 271.4-269.5C958.9 662.3 1080 540.6 1080 540c0-.5-121.1-122.3-269.1-270.5C613.8 72.2 541.1 0 539.5 0c-1.6 0-74.2 72.1-270.9 269zm660.9 130.9l134 134.1-525-.1h-525L275.9 272 538.3 10l128.6 127.9c70.7 70.4 188.9 188.3 262.6 262zm-5 282.2c-77 77-195.2 194.9-262.6 262L539.3 1066 276.9 804 14.5 542.1h525l525-.1-140 140.1z"/><path d="M475 211.5L411.5 275h254L602 211.5 538.5 148 475 211.5zM279.5 407l-57 57h632l-57-57-57-57h-404l-57 57zM362 750.5C438.2 826.7 500.6 889 500.7 889c.2 0 .3-62.3.3-138.5V612H223.5L362 750.5zM576 751.7v139.8L715.5 752C792.2 675.3 855 612.4 855 612.3c0-.2-62.8-.3-139.5-.3H576v139.7z"/></svg>